<svg width="1200" height="420" viewBox="0 0 1200 420" fill="none" xmlns="http://www.w3.org/2000/svg">
  <rect width="1200" height="420" rx="24" fill="#0F172A"/>
  <rect x="24" y="24" width="1152" height="372" rx="20" fill="#111827" stroke="#1F2937"/>
  <text x="60" y="84" fill="#F9FAFB" font-family="Arial, sans-serif" font-size="34" font-weight="700">Cams.com Downloader</text>
  <text x="60" y="118" fill="#9CA3AF" font-family="Arial, sans-serif" font-size="18">Detect stream, choose quality, save MP4</text>
  <rect x="60" y="160" width="300" height="180" rx="18" fill="#1F2937"/>
  <rect x="450" y="160" width="300" height="180" rx="18" fill="#1F2937"/>
  <rect x="840" y="160" width="300" height="180" rx="18" fill="#1F2937"/>
  <circle cx="112" cy="208" r="24" fill="#22C55E"/>
  <text x="104" y="216" fill="#052E16" font-family="Arial, sans-serif" font-size="18" font-weight="700">1</text>
  <circle cx="502" cy="208" r="24" fill="#38BDF8"/>
  <text x="494" y="216" fill="#082F49" font-family="Arial, sans-serif" font-size="18" font-weight="700">2</text>
  <circle cx="892" cy="208" r="24" fill="#F59E0B"/>
  <text x="884" y="216" fill="#451A03" font-family="Arial, sans-serif" font-size="18" font-weight="700">3</text>
  <text x="150" y="214" fill="#F9FAFB" font-family="Arial, sans-serif" font-size="26" font-weight="700">Open a live room</text>
  <text x="150" y="248" fill="#9CA3AF" font-family="Arial, sans-serif" font-size="18">Start playback so the</text>
  <text x="150" y="274" fill="#9CA3AF" font-family="Arial, sans-serif" font-size="18">extension can detect the stream.</text>
  <text x="540" y="214" fill="#F9FAFB" font-family="Arial, sans-serif" font-size="26" font-weight="700">Pick your quality</text>
  <text x="540" y="248" fill="#9CA3AF" font-family="Arial, sans-serif" font-size="18">Choose from the variants</text>
  <text x="540" y="274" fill="#9CA3AF" font-family="Arial, sans-serif" font-size="18">available on that page.</text>
  <text x="930" y="214" fill="#F9FAFB" font-family="Arial, sans-serif" font-size="26" font-weight="700">Save as MP4</text>
  <text x="930" y="248" fill="#9CA3AF" font-family="Arial, sans-serif" font-size="18">Keep the recording or clip</text>
  <text x="930" y="274" fill="#9CA3AF" font-family="Arial, sans-serif" font-size="18">for offline playback later.</text>
  <path d="M372 250H438" stroke="#374151" stroke-width="6" stroke-linecap="round"/>
  <path d="M762 250H828" stroke="#374151" stroke-width="6" stroke-linecap="round"/>
</svg>
